# xmcd CD database file generated by OrangeCD 6.3
#
# Track frame offsets:
#	150
#	10478
#	19733
#	31975
#	43532
#	58931
#	70519
#	82297
#	91605
#	105787
#	117706
#	131075
#	146644
#	161402
#	173400
#	184220
#	201186
#	215249
#	229697
#	243908
#
# Disc length: 3440 seconds
#
# Revision: 0
# Processed by: cddbd v1.5.2PL0 Copyright (c) Steve Scherf et al.
# Submitted via: OrangeCD 6.3
#
DISCID=130d6e14
DTITLE=Dolly Parton - Love Is Like A Butterfly (1974) - Here You Come Again (19
DTITLE=77)
DYEAR=1900
DGENRE=Country
TTITLE0=Love Is Like A Butterfly
TTITLE1=You're The One That Taught Me To Sing
TTITLE2=My Eyes Can Only See You
TTITLE3=Take Me Back
TTITLE4=Blackie,Kentucky
TTITLE5=I'm Getting Happy
TTITLE6=If I Cross Your Mind
TTITLE7=South To Dixie
TTITLE8=Once Upon A Memory
TTITLE9=Sacred Memories Medley
TTITLE10=Here You Come Again
TTITLE11=Baby,Come Out Tonight
TTITLE12=It's All Wrong,But It's All Right
TTITLE13=Me And Little Andy
TTITLE14=Lovin' You
TTITLE15=Cowgirl and The Dandy
TTITLE16=Two Doors Down
TTITLE17=God's Coloring Book
TTITLE18=As Soon As I Touched Him
TTITLE19=Sweet Music Man
EXTD=
EXTT0=
EXTT1=
EXTT2=
EXTT3=
EXTT4=
EXTT5=
EXTT6=
EXTT7=
EXTT8=
EXTT9=
EXTT10=
EXTT11=
EXTT12=
EXTT13=
EXTT14=
EXTT15=
EXTT16=
EXTT17=
EXTT18=
EXTT19=
PLAYORDER=
